<svg width="15" height="14" viewBox="0 0 15 14" fill="none" xmlns="http://www.w3.org/2000/svg">
<path d="M10.6076 0.5H4.39238C2.51882 0.5 1 2.01882 1 3.89238V10.1076C1 11.9812 2.51882 13.5 4.39238 13.5H10.6076C12.4812 13.5 14 11.9812 14 10.1076V3.89238C14 2.01882 12.4812 0.5 10.6076 0.5Z" stroke="white" stroke-width="0.7" stroke-linecap="round" stroke-linejoin="round"/>
<path d="M7.50046 10.4047C9.38086 10.4047 10.9052 8.88037 10.9052 6.99998C10.9052 5.11958 9.38086 3.59521 7.50046 3.59521C5.62007 3.59521 4.0957 5.11958 4.0957 6.99998C4.0957 8.88037 5.62007 10.4047 7.50046 10.4047Z" stroke="white" stroke-width="0.7" stroke-linecap="round" stroke-linejoin="round"/>
<path d="M11.2138 2.97598C11.3848 2.97598 11.5233 2.8374 11.5233 2.66646C11.5233 2.49551 11.3848 2.35693 11.2138 2.35693C11.0429 2.35693 10.9043 2.49551 10.9043 2.66646C10.9043 2.8374 11.0429 2.97598 11.2138 2.97598Z" stroke="white" stroke-width="0.7" stroke-linecap="round" stroke-linejoin="round"/>
</svg>
