<svg width="13" height="12" viewBox="0 0 13 12" fill="none" xmlns="http://www.w3.org/2000/svg">
<path d="M0.992105 11.1318C0.718421 11.1318 0.484649 11.0349 0.290789 10.841C0.0969298 10.6472 0 10.4134 0 10.1397V1.86076C0 1.58707 0.0969298 1.3533 0.290789 1.15944C0.484649 0.965582 0.718421 0.868652 0.992105 0.868652H12.0079C12.2816 0.868652 12.5154 0.965582 12.7092 1.15944C12.9031 1.3533 13 1.58707 13 1.86076V10.1397C13 10.4134 12.9031 10.6472 12.7092 10.841C12.5154 11.0349 12.2816 11.1318 12.0079 11.1318H0.992105ZM6.5 6.10286L0.769737 2.3226V10.1397C0.769737 10.2081 0.789693 10.2623 0.829605 10.3022C0.869518 10.3421 0.923684 10.3621 0.992105 10.3621H12.0079C12.0763 10.3621 12.1305 10.3421 12.1704 10.3022C12.2103 10.2623 12.2303 10.2081 12.2303 10.1397V2.3226L6.5 6.10286ZM6.5 5.28181L12.0763 1.63839H0.940789L6.5 5.28181ZM0.769737 2.3226V1.63839V10.1397C0.769737 10.2081 0.789693 10.2623 0.829605 10.3022C0.869518 10.3421 0.923684 10.3621 0.992105 10.3621H0.769737V10.1397V2.3226Z" fill="white"/>
</svg>
