<svg width="13" height="18" viewBox="0 0 13 18" fill="none" xmlns="http://www.w3.org/2000/svg">
<path d="M6.5 17.7746C6.10133 17.7746 5.76767 17.6619 5.499 17.4366C5.23033 17.2113 5.096 16.9166 5.096 16.5526H4.342C4.134 16.5526 3.94767 16.4703 3.783 16.3056C3.61833 16.1409 3.536 15.9546 3.536 15.7466V12.6006C2.392 11.9766 1.51667 11.1403 0.91 10.0916C0.303333 9.04294 0 7.92061 0 6.72461C0 4.90461 0.628333 3.36628 1.885 2.10961C3.14167 0.852943 4.68 0.224609 6.5 0.224609C8.32 0.224609 9.85833 0.852943 11.115 2.10961C12.3717 3.36628 13 4.90461 13 6.72461C13 7.92061 12.6967 9.04294 12.09 10.0916C11.4833 11.1403 10.608 11.9766 9.464 12.6006V15.7466C9.464 15.9546 9.38167 16.1409 9.217 16.3056C9.05233 16.4703 8.866 16.5526 8.658 16.5526H7.904C7.904 16.9166 7.76967 17.2113 7.501 17.4366C7.23233 17.6619 6.89867 17.7746 6.5 17.7746ZM4.342 15.7466H8.658V14.6546H4.342V15.7466ZM4.342 13.8486H8.658V12.7826H4.342V13.8486ZM4.108 11.9766H6.11V8.38861L3.9 6.17861L4.446 5.65861L6.5 7.73861L8.554 5.65861L9.1 6.17861L6.89 8.38861V11.9766H8.892C9.88 11.5259 10.6773 10.8283 11.284 9.88361C11.8907 8.93894 12.194 7.88594 12.194 6.72461C12.194 5.12994 11.6437 3.78228 10.543 2.68161C9.44233 1.58094 8.09467 1.03061 6.5 1.03061C4.90533 1.03061 3.55767 1.58094 2.457 2.68161C1.35633 3.78228 0.806 5.12994 0.806 6.72461C0.806 7.88594 1.10933 8.93894 1.716 9.88361C2.32267 10.8283 3.12 11.5259 4.108 11.9766Z" fill="white"/>
</svg>
