<svg width="13" height="16" viewBox="0 0 13 16" fill="none" xmlns="http://www.w3.org/2000/svg">
<path d="M0 15.1195H13V13.6829C13 12.5668 12.4337 11.7214 11.3011 11.1469C10.1686 10.5724 8.56818 10.2852 6.5 10.2852C4.43182 10.2852 2.83144 10.5724 1.69886 11.1469C0.566288 11.7214 0 12.5668 0 13.6829V15.1195ZM6.5 6.49352C7.28788 6.49352 7.95265 6.22269 8.49432 5.68102C9.03598 5.13935 9.30682 4.47458 9.30682 3.6867C9.30682 2.89882 9.03598 2.23405 8.49432 1.69238C7.95265 1.15072 7.28788 0.879883 6.5 0.879883C5.71212 0.879883 5.04735 1.15072 4.50568 1.69238C3.96402 2.23405 3.69318 2.89882 3.69318 3.6867C3.69318 4.47458 3.96402 5.13935 4.50568 5.68102C5.04735 6.22269 5.71212 6.49352 6.5 6.49352Z" fill="white"/>
</svg>
