<svg width="14" height="14" viewBox="0 0 14 14" fill="none" xmlns="http://www.w3.org/2000/svg">
<path d="M13.6855 0.636549C13.6411 0.635934 13.5971 0.644604 13.5563 0.662003L0.192913 6.38917C0.135041 6.41396 0.0858224 6.45536 0.0514866 6.50813C0.0171507 6.56089 -0.000758839 6.62266 2.46499e-05 6.68562C0.000808139 6.74857 0.0202494 6.80987 0.0558879 6.86177C0.0915264 6.91367 0.14176 6.95383 0.200231 6.97716L3.24486 8.19514L4.47079 11.8736C4.48797 11.925 4.51801 11.9712 4.55807 12.0078C4.59812 12.0444 4.64686 12.0701 4.69965 12.0825C4.75244 12.0949 4.80753 12.0937 4.8597 12.0788C4.91186 12.064 4.95936 12.036 4.99769 11.9977L7.07857 9.91711L10.9269 13.2847C10.9687 13.3212 11.0193 13.3462 11.0737 13.3572C11.1281 13.3681 11.1845 13.3646 11.2371 13.3471C11.2898 13.3295 11.3369 13.2985 11.3739 13.2571C11.4108 13.2156 11.4363 13.1653 11.4478 13.111L13.9932 1.01995C14.0029 0.973923 14.0022 0.926318 13.9913 0.880564C13.9804 0.83481 13.9595 0.792044 13.9301 0.755347C13.9006 0.718649 13.8634 0.688932 13.8211 0.668335C13.7789 0.647738 13.7325 0.636773 13.6855 0.63623V0.636549ZM13.2442 1.48862L10.9368 12.4485L6.52367 8.58682L9.75952 5.64464C9.82193 5.58792 9.85927 5.50873 9.86333 5.42449C9.86739 5.34025 9.83783 5.25784 9.78115 5.19538C9.72443 5.13296 9.64524 5.09562 9.561 5.09157C9.47676 5.08751 9.39435 5.11707 9.33189 5.17374L5.83195 8.3555C5.79877 8.38564 5.77234 8.42245 5.75438 8.46351C5.73642 8.50457 5.72733 8.54897 5.72772 8.59379C5.72812 8.63861 5.73797 8.68284 5.75664 8.72358C5.77532 8.76433 5.80239 8.80067 5.83609 8.83022L6.59876 9.49712L4.9121 11.1835L3.8023 7.85406C3.78757 7.81021 3.76346 7.7701 3.73164 7.73653C3.69983 7.70295 3.66107 7.67672 3.61808 7.65965L1.14999 6.67203L13.2442 1.48862Z" fill="white"/>
</svg>
