<svg width="123" height="15" viewBox="0 0 123 15" fill="none" xmlns="http://www.w3.org/2000/svg">
<path d="M5.94 1.278L10.332 12.6C10.512 13.056 10.716 13.362 10.944 13.518C11.172 13.662 11.382 13.74 11.574 13.752V14.112C11.334 14.088 11.04 14.076 10.692 14.076C10.344 14.064 9.996 14.058 9.648 14.058C9.18 14.058 8.742 14.064 8.334 14.076C7.926 14.076 7.596 14.088 7.344 14.112V13.752C7.956 13.728 8.346 13.626 8.514 13.446C8.682 13.254 8.646 12.852 8.406 12.24L5.058 3.294L5.346 3.06L2.214 11.196C2.022 11.676 1.908 12.084 1.872 12.42C1.836 12.744 1.866 13.002 1.962 13.194C2.07 13.386 2.244 13.524 2.484 13.608C2.736 13.692 3.048 13.74 3.42 13.752V14.112C3.084 14.088 2.73 14.076 2.358 14.076C1.998 14.064 1.662 14.058 1.35 14.058C1.05 14.058 0.792 14.064 0.576 14.076C0.372 14.076 0.18 14.088 0 14.112V13.752C0.24 13.692 0.486 13.554 0.738 13.338C0.99 13.11 1.218 12.726 1.422 12.186L5.652 1.278C5.7 1.278 5.748 1.278 5.796 1.278C5.844 1.278 5.892 1.278 5.94 1.278ZM8.136 8.928V9.288H2.772L2.952 8.928H8.136Z" fill="white"/>
<path d="M14.3619 0V12.438C14.3619 12.942 14.4639 13.284 14.6679 13.464C14.8839 13.644 15.2379 13.734 15.7299 13.734V14.112C15.5259 14.1 15.2139 14.088 14.7939 14.076C14.3859 14.052 13.9719 14.04 13.5519 14.04C13.1439 14.04 12.7299 14.052 12.3099 14.076C11.8899 14.088 11.5779 14.1 11.3739 14.112V13.734C11.8659 13.734 12.2139 13.644 12.4179 13.464C12.6339 13.284 12.7419 12.942 12.7419 12.438V2.16C12.7419 1.62 12.6459 1.224 12.4539 0.972C12.2619 0.708 11.9019 0.576 11.3739 0.576V0.197999C11.7579 0.234 12.1299 0.252 12.4899 0.252C12.8379 0.252 13.1679 0.234 13.4799 0.197999C13.8039 0.15 14.0979 0.0840003 14.3619 0Z" fill="white"/>
<path d="M20.3625 4.59C21.4185 4.59 22.2405 4.914 22.8285 5.562C23.4285 6.198 23.7285 7.194 23.7285 8.55H17.3745L17.3565 8.208H22.0005C22.0245 7.62 21.9765 7.08 21.8565 6.588C21.7365 6.084 21.5445 5.682 21.2805 5.382C21.0285 5.082 20.6985 4.932 20.2905 4.932C19.7385 4.932 19.2465 5.208 18.8145 5.76C18.3945 6.312 18.1425 7.188 18.0585 8.388L18.1125 8.46C18.0885 8.64 18.0705 8.838 18.0585 9.054C18.0465 9.27 18.0405 9.486 18.0405 9.702C18.0405 10.518 18.1725 11.22 18.4365 11.808C18.7005 12.396 19.0425 12.846 19.4625 13.158C19.8945 13.458 20.3385 13.608 20.7945 13.608C21.1545 13.608 21.4965 13.554 21.8205 13.446C22.1445 13.326 22.4445 13.134 22.7205 12.87C22.9965 12.606 23.2365 12.252 23.4405 11.808L23.8005 11.952C23.6685 12.348 23.4525 12.732 23.1525 13.104C22.8525 13.476 22.4745 13.782 22.0185 14.022C21.5625 14.25 21.0345 14.364 20.4345 14.364C19.5705 14.364 18.8265 14.166 18.2025 13.77C17.5905 13.374 17.1165 12.828 16.7805 12.132C16.4565 11.424 16.2945 10.614 16.2945 9.702C16.2945 8.646 16.4625 7.74 16.7985 6.984C17.1345 6.216 17.6085 5.628 18.2205 5.22C18.8325 4.8 19.5465 4.59 20.3625 4.59Z" fill="white"/>
<path d="M27.6559 4.842V5.22C27.4279 5.22 27.2359 5.274 27.0799 5.382C26.9239 5.49 26.9059 5.64 27.0259 5.832L31.8319 12.834C32.0359 13.134 32.2159 13.35 32.3719 13.482C32.5279 13.602 32.7199 13.686 32.9479 13.734V14.112C32.8279 14.1 32.6419 14.088 32.3899 14.076C32.1499 14.052 31.9099 14.04 31.6699 14.04C31.2979 14.04 30.8959 14.052 30.4639 14.076C30.0439 14.088 29.7379 14.1 29.5459 14.112V13.734C29.7859 13.734 29.9839 13.68 30.1399 13.572C30.2959 13.452 30.3079 13.302 30.1759 13.122L25.3699 6.12C25.1299 5.772 24.9379 5.544 24.7939 5.436C24.6499 5.316 24.4699 5.244 24.2539 5.22V4.842C24.3739 4.854 24.5599 4.872 24.8119 4.896C25.0639 4.908 25.3039 4.914 25.5319 4.914C25.9159 4.914 26.3179 4.908 26.7379 4.896C27.1579 4.872 27.4639 4.854 27.6559 4.842ZM28.1419 9.414C28.1419 9.414 28.1539 9.456 28.1779 9.54C28.2019 9.612 28.2259 9.69 28.2499 9.774C28.2859 9.858 28.3039 9.9 28.3039 9.9L26.8099 11.844C26.4979 12.252 26.3299 12.594 26.3059 12.87C26.2939 13.146 26.4079 13.356 26.6479 13.5C26.8879 13.632 27.2179 13.716 27.6379 13.752V14.112C27.4339 14.1 27.2059 14.094 26.9539 14.094C26.7019 14.082 26.4559 14.076 26.2159 14.076C25.9879 14.064 25.7779 14.058 25.5859 14.058C25.3099 14.058 25.0579 14.064 24.8299 14.076C24.6139 14.076 24.4099 14.088 24.2179 14.112V13.752C24.4459 13.728 24.6799 13.626 24.9199 13.446C25.1719 13.254 25.4659 12.936 25.8019 12.492L28.1419 9.414ZM32.5879 4.842V5.202C32.3599 5.226 32.1079 5.346 31.8319 5.562C31.5679 5.766 31.2919 6.066 31.0039 6.462L28.9339 9.324C28.9339 9.324 28.9219 9.288 28.8979 9.216C28.8739 9.132 28.8499 9.054 28.8259 8.982C28.8019 8.898 28.7899 8.856 28.7899 8.856L30.1939 6.894C30.4579 6.522 30.6259 6.216 30.6979 5.976C30.7699 5.736 30.7279 5.556 30.5719 5.436C30.4279 5.304 30.1399 5.226 29.7079 5.202V4.842C30.0199 4.854 30.2779 4.866 30.4819 4.878C30.6979 4.89 30.9439 4.896 31.2199 4.896C31.4959 4.896 31.7419 4.89 31.9579 4.878C32.1859 4.866 32.3959 4.854 32.5879 4.842Z" fill="white"/>
<path d="M35.7659 14.238C35.2739 14.238 34.8479 14.148 34.4879 13.968C34.1279 13.776 33.8519 13.512 33.6599 13.176C33.4799 12.84 33.3899 12.45 33.3899 12.006C33.3899 11.478 33.5099 11.046 33.7499 10.71C34.0019 10.374 34.3199 10.104 34.7039 9.9C35.0879 9.696 35.4899 9.528 35.9099 9.396C36.3419 9.252 36.7499 9.12 37.1339 9C37.5179 8.868 37.8299 8.718 38.0699 8.55C38.3219 8.382 38.4479 8.16 38.4479 7.884V6.768C38.4479 6.264 38.3699 5.88 38.2139 5.616C38.0699 5.352 37.8719 5.178 37.6199 5.094C37.3679 4.998 37.0859 4.95 36.7739 4.95C36.4739 4.95 36.1499 4.992 35.8019 5.076C35.4659 5.16 35.1959 5.334 34.9919 5.598C35.2199 5.646 35.4179 5.766 35.5859 5.958C35.7539 6.15 35.8379 6.396 35.8379 6.696C35.8379 6.996 35.7419 7.236 35.5499 7.416C35.3579 7.584 35.1119 7.668 34.8119 7.668C34.4639 7.668 34.2059 7.56 34.0379 7.344C33.8819 7.116 33.8039 6.864 33.8039 6.588C33.8039 6.276 33.8819 6.024 34.0379 5.832C34.1939 5.64 34.3919 5.46 34.6319 5.292C34.9079 5.1 35.2619 4.938 35.6939 4.806C36.1379 4.662 36.6359 4.59 37.1879 4.59C37.6799 4.59 38.0999 4.65 38.4479 4.77C38.7959 4.878 39.0839 5.04 39.3119 5.256C39.6239 5.544 39.8279 5.898 39.9239 6.318C40.0199 6.726 40.0679 7.218 40.0679 7.794V12.798C40.0679 13.098 40.1099 13.314 40.1939 13.446C40.2899 13.578 40.4339 13.644 40.6259 13.644C40.7579 13.644 40.8839 13.614 41.0039 13.554C41.1239 13.494 41.2679 13.398 41.4359 13.266L41.6339 13.572C41.3819 13.764 41.1419 13.926 40.9139 14.058C40.6859 14.178 40.3799 14.238 39.9959 14.238C39.6479 14.238 39.3599 14.178 39.1319 14.058C38.9039 13.938 38.7299 13.764 38.6099 13.536C38.5019 13.296 38.4479 12.996 38.4479 12.636C38.1239 13.176 37.7339 13.578 37.2779 13.842C36.8339 14.106 36.3299 14.238 35.7659 14.238ZM36.4139 13.518C36.8099 13.518 37.1759 13.404 37.5119 13.176C37.8599 12.948 38.1719 12.606 38.4479 12.15V8.622C38.3039 8.826 38.0939 9 37.8179 9.144C37.5419 9.276 37.2419 9.414 36.9179 9.558C36.5939 9.69 36.2819 9.852 35.9819 10.044C35.6939 10.224 35.4539 10.464 35.2619 10.764C35.0699 11.064 34.9739 11.454 34.9739 11.934C34.9739 12.414 35.0999 12.798 35.3519 13.086C35.6159 13.374 35.9699 13.518 36.4139 13.518Z" fill="white"/>
<path d="M47.7367 4.59C48.1927 4.59 48.5707 4.65 48.8707 4.77C49.1827 4.89 49.4407 5.058 49.6447 5.274C49.8727 5.514 50.0347 5.814 50.1307 6.174C50.2267 6.534 50.2747 7.02 50.2747 7.632V12.438C50.2747 12.942 50.3767 13.284 50.5807 13.464C50.7967 13.644 51.1507 13.734 51.6427 13.734V14.112C51.4387 14.1 51.1267 14.088 50.7067 14.076C50.2867 14.052 49.8787 14.04 49.4827 14.04C49.0867 14.04 48.6967 14.052 48.3127 14.076C47.9407 14.088 47.6587 14.1 47.4667 14.112V13.734C47.8987 13.734 48.2047 13.644 48.3847 13.464C48.5647 13.284 48.6547 12.942 48.6547 12.438V7.236C48.6547 6.864 48.6247 6.522 48.5647 6.21C48.5047 5.898 48.3667 5.646 48.1507 5.454C47.9467 5.262 47.6287 5.166 47.1967 5.166C46.6927 5.166 46.2487 5.31 45.8647 5.598C45.4927 5.886 45.1987 6.282 44.9827 6.786C44.7787 7.278 44.6767 7.83 44.6767 8.442V12.438C44.6767 12.942 44.7667 13.284 44.9467 13.464C45.1267 13.644 45.4327 13.734 45.8647 13.734V14.112C45.6727 14.1 45.3847 14.088 45.0007 14.076C44.6287 14.052 44.2447 14.04 43.8487 14.04C43.4527 14.04 43.0447 14.052 42.6247 14.076C42.2047 14.088 41.8927 14.1 41.6887 14.112V13.734C42.1807 13.734 42.5287 13.644 42.7327 13.464C42.9487 13.284 43.0567 12.942 43.0567 12.438V6.804C43.0567 6.264 42.9607 5.868 42.7687 5.616C42.5767 5.352 42.2167 5.22 41.6887 5.22V4.842C42.0727 4.878 42.4447 4.896 42.8047 4.896C43.1527 4.896 43.4827 4.878 43.7947 4.842C44.1187 4.794 44.4127 4.728 44.6767 4.644V6.768C44.9887 5.952 45.4207 5.388 45.9727 5.076C46.5367 4.752 47.1247 4.59 47.7367 4.59Z" fill="white"/>
<path d="M60.1329 0V12.15C60.1329 12.69 60.2289 13.092 60.4209 13.356C60.6249 13.608 60.9849 13.734 61.5009 13.734V14.112C61.1289 14.076 60.7569 14.058 60.3849 14.058C60.0369 14.058 59.7009 14.076 59.3769 14.112C59.0649 14.148 58.7769 14.214 58.5129 14.31V2.16C58.5129 1.62 58.4169 1.224 58.2249 0.972C58.0329 0.708 57.6729 0.576 57.1449 0.576V0.197999C57.5289 0.234 57.9009 0.252 58.2609 0.252C58.6089 0.252 58.9389 0.234 59.2509 0.197999C59.5749 0.15 59.8689 0.0840003 60.1329 0ZM56.3529 4.59C56.8809 4.59 57.3729 4.716 57.8289 4.968C58.2969 5.22 58.6089 5.652 58.7649 6.264L58.5309 6.444C58.3629 5.94 58.0989 5.574 57.7389 5.346C57.3909 5.118 56.9769 5.004 56.4969 5.004C55.7889 5.004 55.1949 5.37 54.7149 6.102C54.2469 6.834 54.0189 7.962 54.0309 9.486C54.0309 10.458 54.1209 11.268 54.3009 11.916C54.4929 12.552 54.7689 13.032 55.1289 13.356C55.5009 13.668 55.9509 13.824 56.4789 13.824C56.9829 13.824 57.4389 13.608 57.8469 13.176C58.2549 12.744 58.5009 12.108 58.5849 11.268L58.8009 11.52C58.7049 12.432 58.4109 13.134 57.9189 13.626C57.4389 14.118 56.7849 14.364 55.9569 14.364C55.2129 14.364 54.5589 14.184 53.9949 13.824C53.4429 13.464 53.0169 12.924 52.7169 12.204C52.4289 11.484 52.2849 10.578 52.2849 9.486C52.2849 8.394 52.4709 7.488 52.8429 6.768C53.2269 6.036 53.7249 5.49 54.3369 5.13C54.9609 4.77 55.6329 4.59 56.3529 4.59Z" fill="white"/>
<path d="M66.2899 4.59C67.3459 4.59 68.1679 4.914 68.7559 5.562C69.3559 6.198 69.6559 7.194 69.6559 8.55H63.3019L63.2839 8.208H67.9279C67.9519 7.62 67.9039 7.08 67.7839 6.588C67.6639 6.084 67.4719 5.682 67.2079 5.382C66.9559 5.082 66.6259 4.932 66.2179 4.932C65.6659 4.932 65.1739 5.208 64.7419 5.76C64.3219 6.312 64.0699 7.188 63.9859 8.388L64.0399 8.46C64.0159 8.64 63.9979 8.838 63.9859 9.054C63.9739 9.27 63.9679 9.486 63.9679 9.702C63.9679 10.518 64.0999 11.22 64.3639 11.808C64.6279 12.396 64.9699 12.846 65.3899 13.158C65.8219 13.458 66.2659 13.608 66.7219 13.608C67.0819 13.608 67.4239 13.554 67.7479 13.446C68.0719 13.326 68.3719 13.134 68.6479 12.87C68.9239 12.606 69.1639 12.252 69.3679 11.808L69.7279 11.952C69.5959 12.348 69.3799 12.732 69.0799 13.104C68.7799 13.476 68.4019 13.782 67.9459 14.022C67.4899 14.25 66.9619 14.364 66.3619 14.364C65.4979 14.364 64.7539 14.166 64.1299 13.77C63.5179 13.374 63.0439 12.828 62.7079 12.132C62.3839 11.424 62.2219 10.614 62.2219 9.702C62.2219 8.646 62.3899 7.74 62.7259 6.984C63.0619 6.216 63.5359 5.628 64.1479 5.22C64.7599 4.8 65.4739 4.59 66.2899 4.59Z" fill="white"/>
<path d="M76.1334 4.59C76.4574 4.59 76.7394 4.656 76.9794 4.788C77.2314 4.92 77.4234 5.094 77.5554 5.31C77.6994 5.514 77.7714 5.748 77.7714 6.012C77.7714 6.312 77.6754 6.576 77.4834 6.804C77.3034 7.032 77.0574 7.146 76.7454 7.146C76.4934 7.146 76.2714 7.068 76.0794 6.912C75.8874 6.744 75.7914 6.51 75.7914 6.21C75.7914 5.982 75.8514 5.79 75.9714 5.634C76.1034 5.466 76.2474 5.334 76.4034 5.238C76.3194 5.118 76.1934 5.058 76.0254 5.058C75.6534 5.058 75.3114 5.172 74.9994 5.4C74.6874 5.616 74.4234 5.898 74.2074 6.246C73.9914 6.594 73.8234 6.966 73.7034 7.362C73.5834 7.746 73.5234 8.106 73.5234 8.442V12.258C73.5234 12.846 73.6914 13.242 74.0274 13.446C74.3754 13.638 74.8434 13.734 75.4314 13.734V14.112C75.1554 14.1 74.7654 14.088 74.2614 14.076C73.7574 14.052 73.2234 14.04 72.6594 14.04C72.2514 14.04 71.8434 14.052 71.4354 14.076C71.0394 14.088 70.7394 14.1 70.5354 14.112V13.734C71.0274 13.734 71.3754 13.644 71.5794 13.464C71.7954 13.284 71.9034 12.942 71.9034 12.438V6.804C71.9034 6.264 71.8074 5.868 71.6154 5.616C71.4234 5.352 71.0634 5.22 70.5354 5.22V4.842C70.9194 4.878 71.2914 4.896 71.6514 4.896C71.9994 4.896 72.3294 4.878 72.6414 4.842C72.9654 4.794 73.2594 4.728 73.5234 4.644V6.894C73.6554 6.546 73.8414 6.198 74.0814 5.85C74.3334 5.49 74.6334 5.19 74.9814 4.95C75.3294 4.71 75.7134 4.59 76.1334 4.59Z" fill="white"/>
<path d="M93.0954 1.368V1.728C92.7234 1.776 92.3634 1.896 92.0154 2.088C91.6674 2.28 91.3194 2.598 90.9714 3.042L87.4974 7.488L87.8934 6.606L92.2134 12.654C92.4174 12.954 92.6394 13.188 92.8794 13.356C93.1194 13.524 93.4254 13.656 93.7974 13.752V14.112C93.5094 14.088 93.1494 14.076 92.7174 14.076C92.2974 14.064 91.9374 14.058 91.6374 14.058C91.4334 14.058 91.1814 14.064 90.8814 14.076C90.5934 14.076 90.2274 14.088 89.7834 14.112V13.752C90.1914 13.728 90.4494 13.656 90.5574 13.536C90.6654 13.416 90.6234 13.218 90.4314 12.942L87.8034 8.982C87.5634 8.61 87.3474 8.334 87.1554 8.154C86.9754 7.962 86.7834 7.836 86.5794 7.776C86.3874 7.716 86.1414 7.68 85.8414 7.668V7.308C86.3454 7.296 86.7654 7.2 87.1014 7.02C87.4494 6.828 87.7374 6.588 87.9654 6.3L89.6934 4.104C90.0894 3.6 90.3594 3.174 90.5034 2.826C90.6474 2.478 90.6414 2.214 90.4854 2.034C90.3294 1.842 89.9994 1.74 89.4954 1.728V1.368C89.7234 1.38 89.9574 1.392 90.1974 1.404C90.4374 1.404 90.6714 1.41 90.8994 1.422C91.1394 1.422 91.3614 1.422 91.5654 1.422C91.8774 1.422 92.1654 1.416 92.4294 1.404C92.6934 1.392 92.9154 1.38 93.0954 1.368ZM87.3714 1.368V1.728C86.9634 1.74 86.6514 1.788 86.4354 1.872C86.2314 1.944 86.0934 2.088 86.0214 2.304C85.9494 2.508 85.9134 2.832 85.9134 3.276V12.204C85.9134 12.636 85.9494 12.96 86.0214 13.176C86.0934 13.392 86.2314 13.536 86.4354 13.608C86.6514 13.68 86.9634 13.728 87.3714 13.752V14.112C87.0954 14.088 86.7474 14.076 86.3274 14.076C85.9194 14.064 85.5054 14.058 85.0854 14.058C84.6174 14.058 84.1794 14.064 83.7714 14.076C83.3634 14.076 83.0334 14.088 82.7814 14.112V13.752C83.1894 13.728 83.4954 13.68 83.6994 13.608C83.9154 13.536 84.0594 13.392 84.1314 13.176C84.2034 12.96 84.2394 12.636 84.2394 12.204V3.276C84.2394 2.832 84.2034 2.508 84.1314 2.304C84.0594 2.088 83.9154 1.944 83.6994 1.872C83.4954 1.788 83.1894 1.74 82.7814 1.728V1.368C83.0334 1.38 83.3634 1.392 83.7714 1.404C84.1794 1.416 84.6174 1.422 85.0854 1.422C85.5054 1.422 85.9194 1.416 86.3274 1.404C86.7474 1.392 87.0954 1.38 87.3714 1.368Z" fill="white"/>
<path d="M96.4124 14.238C95.9204 14.238 95.4944 14.148 95.1344 13.968C94.7744 13.776 94.4984 13.512 94.3064 13.176C94.1264 12.84 94.0364 12.45 94.0364 12.006C94.0364 11.478 94.1564 11.046 94.3964 10.71C94.6484 10.374 94.9664 10.104 95.3504 9.9C95.7344 9.696 96.1364 9.528 96.5564 9.396C96.9884 9.252 97.3964 9.12 97.7804 9C98.1644 8.868 98.4764 8.718 98.7164 8.55C98.9684 8.382 99.0944 8.16 99.0944 7.884V6.768C99.0944 6.264 99.0164 5.88 98.8604 5.616C98.7164 5.352 98.5184 5.178 98.2664 5.094C98.0144 4.998 97.7324 4.95 97.4204 4.95C97.1204 4.95 96.7964 4.992 96.4484 5.076C96.1124 5.16 95.8424 5.334 95.6384 5.598C95.8664 5.646 96.0644 5.766 96.2324 5.958C96.4004 6.15 96.4844 6.396 96.4844 6.696C96.4844 6.996 96.3884 7.236 96.1964 7.416C96.0044 7.584 95.7584 7.668 95.4584 7.668C95.1104 7.668 94.8524 7.56 94.6844 7.344C94.5284 7.116 94.4504 6.864 94.4504 6.588C94.4504 6.276 94.5284 6.024 94.6844 5.832C94.8404 5.64 95.0384 5.46 95.2784 5.292C95.5544 5.1 95.9084 4.938 96.3404 4.806C96.7844 4.662 97.2824 4.59 97.8344 4.59C98.3264 4.59 98.7464 4.65 99.0944 4.77C99.4424 4.878 99.7304 5.04 99.9584 5.256C100.27 5.544 100.474 5.898 100.57 6.318C100.666 6.726 100.714 7.218 100.714 7.794V12.798C100.714 13.098 100.756 13.314 100.84 13.446C100.936 13.578 101.08 13.644 101.272 13.644C101.404 13.644 101.53 13.614 101.65 13.554C101.77 13.494 101.914 13.398 102.082 13.266L102.28 13.572C102.028 13.764 101.788 13.926 101.56 14.058C101.332 14.178 101.026 14.238 100.642 14.238C100.294 14.238 100.006 14.178 99.7784 14.058C99.5504 13.938 99.3764 13.764 99.2564 13.536C99.1484 13.296 99.0944 12.996 99.0944 12.636C98.7704 13.176 98.3804 13.578 97.9244 13.842C97.4804 14.106 96.9764 14.238 96.4124 14.238ZM97.0604 13.518C97.4564 13.518 97.8224 13.404 98.1584 13.176C98.5064 12.948 98.8184 12.606 99.0944 12.15V8.622C98.9504 8.826 98.7404 9 98.4644 9.144C98.1884 9.276 97.8884 9.414 97.5644 9.558C97.2404 9.69 96.9284 9.852 96.6284 10.044C96.3404 10.224 96.1004 10.464 95.9084 10.764C95.7164 11.064 95.6204 11.454 95.6204 11.934C95.6204 12.414 95.7464 12.798 95.9984 13.086C96.2624 13.374 96.6164 13.518 97.0604 13.518Z" fill="white"/>
<path d="M108.383 4.59C108.839 4.59 109.217 4.65 109.517 4.77C109.829 4.89 110.087 5.058 110.291 5.274C110.519 5.514 110.681 5.814 110.777 6.174C110.873 6.534 110.921 7.02 110.921 7.632V12.438C110.921 12.942 111.023 13.284 111.227 13.464C111.443 13.644 111.797 13.734 112.289 13.734V14.112C112.085 14.1 111.773 14.088 111.353 14.076C110.933 14.052 110.525 14.04 110.129 14.04C109.733 14.04 109.343 14.052 108.959 14.076C108.587 14.088 108.305 14.1 108.113 14.112V13.734C108.545 13.734 108.851 13.644 109.031 13.464C109.211 13.284 109.301 12.942 109.301 12.438V7.236C109.301 6.864 109.271 6.522 109.211 6.21C109.151 5.898 109.013 5.646 108.797 5.454C108.593 5.262 108.275 5.166 107.843 5.166C107.339 5.166 106.895 5.31 106.511 5.598C106.139 5.886 105.845 6.282 105.629 6.786C105.425 7.278 105.323 7.83 105.323 8.442V12.438C105.323 12.942 105.413 13.284 105.593 13.464C105.773 13.644 106.079 13.734 106.511 13.734V14.112C106.319 14.1 106.031 14.088 105.647 14.076C105.275 14.052 104.891 14.04 104.495 14.04C104.099 14.04 103.691 14.052 103.271 14.076C102.851 14.088 102.539 14.1 102.335 14.112V13.734C102.827 13.734 103.175 13.644 103.379 13.464C103.595 13.284 103.703 12.942 103.703 12.438V6.804C103.703 6.264 103.607 5.868 103.415 5.616C103.223 5.352 102.863 5.22 102.335 5.22V4.842C102.719 4.878 103.091 4.896 103.451 4.896C103.799 4.896 104.129 4.878 104.441 4.842C104.765 4.794 105.059 4.728 105.323 4.644V6.768C105.635 5.952 106.067 5.388 106.619 5.076C107.183 4.752 107.771 4.59 108.383 4.59Z" fill="white"/>
<path d="M118.637 4.59C119.093 4.59 119.471 4.65 119.771 4.77C120.083 4.89 120.341 5.058 120.545 5.274C120.773 5.514 120.935 5.814 121.031 6.174C121.127 6.534 121.175 7.02 121.175 7.632V12.438C121.175 12.942 121.277 13.284 121.481 13.464C121.697 13.644 122.051 13.734 122.543 13.734V14.112C122.339 14.1 122.027 14.088 121.607 14.076C121.187 14.052 120.779 14.04 120.383 14.04C119.987 14.04 119.597 14.052 119.213 14.076C118.841 14.088 118.559 14.1 118.367 14.112V13.734C118.799 13.734 119.105 13.644 119.285 13.464C119.465 13.284 119.555 12.942 119.555 12.438V7.236C119.555 6.864 119.525 6.522 119.465 6.21C119.405 5.898 119.267 5.646 119.051 5.454C118.847 5.262 118.529 5.166 118.097 5.166C117.593 5.166 117.149 5.31 116.765 5.598C116.393 5.886 116.099 6.282 115.883 6.786C115.679 7.278 115.577 7.83 115.577 8.442V12.438C115.577 12.942 115.667 13.284 115.847 13.464C116.027 13.644 116.333 13.734 116.765 13.734V14.112C116.573 14.1 116.285 14.088 115.901 14.076C115.529 14.052 115.145 14.04 114.749 14.04C114.353 14.04 113.945 14.052 113.525 14.076C113.105 14.088 112.793 14.1 112.589 14.112V13.734C113.081 13.734 113.429 13.644 113.633 13.464C113.849 13.284 113.957 12.942 113.957 12.438V6.804C113.957 6.264 113.861 5.868 113.669 5.616C113.477 5.352 113.117 5.22 112.589 5.22V4.842C112.973 4.878 113.345 4.896 113.705 4.896C114.053 4.896 114.383 4.878 114.695 4.842C115.019 4.794 115.313 4.728 115.577 4.644V6.768C115.889 5.952 116.321 5.388 116.873 5.076C117.437 4.752 118.025 4.59 118.637 4.59Z" fill="white"/>
</svg>
